<svg width="102" height="128" viewBox="0 0 102 128" fill="none" xmlns="http://www.w3.org/2000/svg">
<path d="M57.1738 2.3843C55.9738 4.5843 55.5738 7.1843 55.7738 9.8843C56.0738 12.6843 55.6738 15.2843 54.3738 17.7843C52.7738 20.9843 26.0738 67.7843 14.8738 86.9843C13.0738 90.0843 10.6738 92.6843 8.57383 93.6843C6.67383 94.6843 3.77383 96.8843 2.07383 98.6843C-0.326165 101.484 -0.526165 101.984 0.873835 102.284C1.77383 102.484 2.57383 103.284 2.57383 104.084C2.57383 104.884 3.17383 105.484 3.87383 105.484C5.97383 105.484 11.5738 108.484 11.5738 109.584C11.5738 110.084 12.4738 110.484 13.5738 110.484C14.6738 110.484 15.5738 110.884 15.5738 111.484C15.5738 111.984 16.4738 112.484 17.5738 112.484C18.6738 112.484 19.8738 113.184 20.2738 114.084C20.5738 114.884 21.4738 115.384 22.2738 115.084C22.9738 114.784 23.8738 115.184 24.1738 115.984C24.5738 116.784 25.5738 117.484 26.5738 117.484C27.5738 117.484 28.5738 118.184 28.9738 118.984C29.2738 119.784 30.1738 120.184 31.0738 119.884C31.8738 119.584 32.5738 119.784 32.5738 120.384C32.5738 120.984 33.6738 121.984 35.0738 122.484C36.4738 122.984 37.5738 123.884 37.5738 124.484C37.5738 124.984 38.4738 125.484 39.4738 125.484C40.5738 125.484 41.5738 126.084 41.8738 126.684C42.8738 129.384 45.7738 120.084 45.1738 115.984C44.6738 112.284 45.4738 110.584 55.7738 92.4843C87.5738 36.5843 89.3738 33.7843 93.4738 32.0843C95.6738 31.2843 98.2738 29.2843 99.4738 27.5843C101.974 24.1843 102.074 23.4843 100.174 23.4843C99.3738 23.4843 98.5738 22.7843 98.1738 21.9843C97.8738 21.1843 96.9738 20.7843 96.2738 21.0843C95.4738 21.3843 94.5738 20.8843 94.2738 20.0843C93.8738 19.1843 92.6738 18.4843 91.5738 18.4843C90.4738 18.4843 89.5738 17.9843 89.5738 17.4843C89.5738 16.8843 88.6738 16.4843 87.5738 16.4843C86.4738 16.4843 85.5738 15.7843 85.5738 14.9843C85.5738 14.1843 84.9738 13.4843 84.2738 13.4843C82.1738 13.4843 76.5738 10.4843 76.5738 9.3843C76.5738 8.8843 75.6738 8.4843 74.5738 8.4843C73.4738 8.4843 72.5738 7.9843 72.5738 7.4843C72.5738 6.8843 71.6738 6.4843 70.6738 6.4843C69.6738 6.4843 68.5738 5.7843 68.1738 4.9843C67.8738 4.1843 66.6738 3.4843 65.5738 3.4843C64.4738 3.4843 63.5738 2.9843 63.5738 2.4843C63.5738 1.8843 62.6738 1.4843 61.6738 1.4843C60.5738 1.4843 59.5738 0.8843 59.2738 0.184303C59.0738 -0.415703 58.0738 0.484299 57.1738 2.3843ZM70.6738 20.0843C73.9738 22.5843 76.4738 24.8843 76.2738 25.1843C75.9738 25.3843 72.9738 24.3843 69.4738 22.9843C64.1738 20.6843 62.5738 20.4843 59.8738 21.2843C56.8738 22.1843 56.6738 22.1843 57.5738 20.4843C58.6738 18.4843 62.4738 15.4843 63.8738 15.4843C64.3738 15.4843 67.3738 17.5843 70.6738 20.0843ZM28.9738 98.3843C32.0738 100.784 34.4738 102.984 34.2738 103.184C33.9738 103.384 30.2738 101.984 25.9738 100.084C18.8738 96.9843 18.0738 96.3843 17.7738 93.5843C17.5738 91.9843 17.9738 89.5843 18.6738 88.2843C19.8738 86.0843 19.9738 86.0843 21.5738 89.9843C22.6738 92.5843 25.2738 95.5843 28.9738 98.3843Z" fill="black"/>
</svg>
