<svg width="70" height="101" viewBox="0 0 70 101" fill="none" xmlns="http://www.w3.org/2000/svg">
<path d="M56.3 4.7C53.9 8.7 52.6 9.7 48.9 10.7C41 12.8 36.8 16.9 29.2 29.7C9.4 63.4 0 80.5 0 83C0 87 2.4 89.3 12.4 95C24 101.6 25.9 102 29.8 98.3C31.5 96.8 39 84.7 46.6 71.5C67.7 34.7 67.1 36 67.1 28.8C67.1 25.3 66.6 21 66.1 19.1C65.2 16.1 65.4 15 67.5 11.2C68.9 8.7 70 6.4 70 5.9C70 4.8 62.4 0 60.7 0C59.9 0 58 2.1 56.3 4.7ZM55.9 46.2C48.4 60.3 31.2 89 29.2 90.7C25.3 94 21.8 94.4 16.8 92.2C10.8 89.5 7.9 86 7.3 80.8C6.9 77 7.4 75.5 12.2 67.6C15.1 62.6 18.8 57.9 20.4 56.9C22.1 55.9 26.5 54.9 31.4 54.5C41 53.6 48.2 51.2 53 47.1C57.2 43.4 57.4 43.4 55.9 46.2Z" fill="black"/>
</svg>
