<svg width="144" height="147" viewBox="0 0 144 147" fill="none" xmlns="http://www.w3.org/2000/svg">
<path d="M44.7196 1.16546C39.2196 5.76546 29.7196 31.0655 33.6196 30.9655C34.0196 30.9655 35.2196 30.2655 36.2196 29.4655C39.1196 27.2655 43.2196 27.6655 45.5196 30.1655C46.6196 31.4655 48.3196 34.9655 49.3196 37.9655C51.4196 44.4655 55.0196 49.8655 61.2196 55.8655C65.6196 60.1655 65.9196 60.2655 72.5196 60.3655C79.0196 60.4655 79.3196 60.3655 79.0196 58.1655C78.8196 56.9655 78.9196 55.9655 79.1196 55.9655C79.4196 55.9655 81.5196 58.4655 83.8196 61.5655C87.9196 67.0655 88.1196 67.1655 91.9196 66.5655C105.22 64.4655 104.42 64.4655 102.92 66.2655C101.02 68.6655 91.0196 73.1655 88.5196 72.7655C86.6196 72.4655 84.9196 70.4655 81.2196 64.3655C80.1196 62.5655 79.9196 62.5655 75.4196 64.7655C71.2196 66.7655 70.3196 67.7655 67.3196 74.2655C61.5196 86.7655 58.8196 88.4655 45.7196 88.4655C38.0196 88.3655 30.1196 86.1655 27.8196 83.4655C26.7196 82.1655 27.3196 82.1655 31.4196 83.4655C38.3196 85.5655 43.6196 85.2655 48.8196 82.5655C54.5196 79.6655 57.0196 75.4655 56.6196 69.7655L56.3196 65.4655L54.1196 69.4655C46.3196 84.0655 27.1196 85.1655 19.6196 71.3655L16.9196 66.4655L14.9196 70.9655C11.3196 78.8655 12.8196 88.0655 18.6196 94.2655C20.1196 95.8655 24.1196 98.6655 27.6196 100.665C33.0196 103.665 33.8196 104.565 33.8196 107.065C33.8196 110.265 35.3196 110.165 39.7196 106.765C41.0196 105.765 43.6196 104.965 45.5196 104.965C48.2196 104.965 49.0196 105.465 49.8196 107.565C50.8196 110.065 50.9196 110.165 53.3196 108.565C56.4196 106.565 59.3196 107.765 60.2196 111.465C60.7196 113.365 61.5196 113.965 63.6196 113.965C67.2196 113.965 70.3196 116.265 73.4196 121.065C75.9196 125.065 77.8196 126.065 77.8196 123.465C77.8196 122.265 79.0196 122.565 83.0196 124.865C88.1196 127.865 92.6196 133.965 92.8196 138.165C92.8196 141.165 86.3196 142.465 71.8196 142.465C59.6196 142.465 57.5196 142.165 50.0196 139.565C29.7196 132.665 13.0196 115.565 6.81962 95.4655C3.81962 85.8655 3.11962 70.7655 5.21962 60.9655C7.21962 51.5655 13.2196 39.3655 19.8196 31.2655C24.5196 25.4655 26.0196 21.9655 23.8196 21.9655C20.9196 21.9655 10.9196 35.2655 6.21962 45.3655C1.11962 56.5655 -0.480385 65.1655 0.119615 78.4655C0.719615 90.6655 2.31962 97.0655 7.41962 107.365C19.8196 132.165 43.9196 146.965 71.7196 146.965C98.1196 146.965 120.52 134.265 134.32 111.465C136.22 108.265 137.82 105.165 137.82 104.665C137.82 102.965 127.82 104.965 121.32 107.865C114.52 110.965 110.12 116.065 107.92 123.465C105.62 130.965 105.82 130.665 103.72 128.065C100.62 124.365 101.12 117.165 104.82 112.165C106.42 109.865 107.82 107.765 107.82 107.365C107.82 105.965 99.3196 111.865 95.2196 116.165C90.8196 120.865 90.6196 120.865 88.2196 119.365C86.9196 118.465 85.8196 117.565 85.8196 117.265C85.8196 117.065 87.2196 115.665 88.8196 114.265C92.9196 110.865 92.0196 110.365 86.5196 113.065C82.2196 115.165 81.8196 115.165 79.4196 113.565C78.0196 112.665 76.8196 111.565 76.8196 111.165C76.8196 110.765 78.7196 109.665 81.0196 108.765C85.7196 106.665 85.5196 105.165 80.7196 106.865C76.0196 108.465 73.6196 108.265 67.4196 105.365C63.2196 103.465 58.9196 102.565 51.0196 101.865C33.7196 100.265 23.6196 96.4655 20.3196 90.0655C18.0196 85.5655 18.4196 85.4655 23.1196 89.3655C30.5196 95.4655 34.2196 96.2655 52.0196 96.1655C66.4196 96.0655 70.0196 96.4655 75.1196 98.4655C76.8196 99.1655 76.9196 98.6655 76.6196 93.4655C76.3196 87.7655 76.4196 87.5655 79.6196 85.3655C82.0196 83.7655 83.8196 83.2655 85.8196 83.6655C89.6196 84.3655 98.0196 81.4655 100.82 78.4655C102.12 77.0655 103.52 75.9655 104.02 75.9655C105.92 75.9655 104.42 78.4655 99.2196 83.9655C95.8196 87.5655 92.9196 91.7655 91.7196 94.9655C90.6196 97.8655 90.2196 99.9655 90.7196 99.7655C91.2196 99.6655 96.2196 95.1655 101.82 89.9655C107.42 84.7655 112.22 80.2655 112.52 79.9655C113.32 79.2655 107.92 88.7655 104.82 93.4655C100.32 100.265 100.12 100.665 102.42 98.9655C103.42 98.1655 104.52 97.2655 104.82 96.9655C106.92 94.7655 115.02 88.8655 118.32 87.1655C124.02 84.2655 136.82 81.2655 136.82 82.7655C136.82 83.1655 134.42 84.9655 131.62 86.7655C126.02 90.1655 123.52 92.1655 120.42 95.6655C118.92 97.4655 120.42 97.1655 129.42 93.4655C135.42 90.9655 140.82 88.9655 141.42 88.9655C144.12 88.9655 144.72 70.7655 142.42 59.7655C140.82 52.2655 135.52 40.3655 130.82 33.4655C121.02 19.1655 102.52 7.26546 85.3196 4.06546C78.9196 2.86546 63.7196 2.76546 59.8196 3.86546L57.3196 4.56546L59.5196 5.76546C60.7196 6.46546 65.5196 6.96546 70.2196 6.96546C82.2196 6.96546 91.8196 9.26546 102.72 14.5655C110.32 18.2655 113.52 20.6655 119.72 26.9655C126.72 34.0655 135.22 46.9655 133.02 46.9655C132.42 46.9655 130.02 46.0655 127.52 45.0655C123.52 43.3655 123.22 42.9655 123.62 40.0655C124.12 36.5655 122.62 36.0655 116.92 38.0655C114.42 38.9655 113.12 38.8655 110.32 37.5655C107.22 36.0655 106.92 35.5655 107.52 32.9655C108.02 30.2655 107.82 29.9655 105.62 29.9655C104.22 29.9655 101.72 30.4655 99.9196 31.0655C95.3196 32.6655 90.4196 31.4655 89.0196 28.4655C88.0196 26.3655 87.4196 26.0655 85.1196 26.5655C80.9196 27.5655 80.8196 27.7655 82.4196 32.1655C83.8196 36.2655 83.4196 38.7655 81.8196 35.9655C81.3196 35.1655 78.2196 30.7655 74.8196 26.1655C69.7196 19.2655 67.1196 16.8655 59.3196 11.7655C52.0196 6.96546 49.9196 4.96546 49.4196 2.76546C48.8196 -0.234537 47.1196 -0.834537 44.7196 1.16546ZM50.3196 10.9655C50.7196 11.5655 50.7196 12.7655 50.4196 13.6655C49.9196 14.9655 49.5196 14.9655 48.2196 13.8655C46.8196 12.6655 46.3196 12.7655 45.0196 14.7655C43.6196 16.9655 40.8196 17.7655 40.8196 16.0655C40.8196 14.7655 46.7196 9.96546 48.3196 9.96546C49.1196 9.96546 50.0196 10.4655 50.3196 10.9655ZM60.8196 23.4655C68.8196 27.3655 71.7196 29.9655 68.3196 29.9655C67.5196 29.9655 66.4196 30.8655 65.8196 32.0655C64.3196 34.7655 59.7196 34.2655 58.3196 31.1655C57.8196 29.9655 56.8196 28.9655 56.2196 28.9655C55.0196 28.9655 53.8196 25.8655 53.8196 22.6655C53.8196 20.6655 55.8196 20.8655 60.8196 23.4655ZM43.8196 23.4655C43.8196 24.4655 42.8196 24.9655 40.6196 24.9655L37.3196 24.8655L39.8196 23.4655C43.0196 21.6655 43.8196 21.6655 43.8196 23.4655ZM58.2196 39.4655C60.1196 42.3655 65.5196 42.8655 70.1196 40.5655C72.5196 39.1655 72.8196 39.2655 72.8196 40.8655C72.8196 43.9655 70.4196 45.9655 65.7196 46.5655C61.8196 47.0655 60.8196 46.8655 59.0196 44.9655C56.7196 42.4655 54.4196 36.9655 55.7196 36.9655C56.2196 36.9655 57.3196 38.0655 58.2196 39.4655ZM99.8196 45.1655C99.8196 47.4655 97.6196 48.3655 94.0196 47.4655L91.3196 46.7655L94.1196 45.3655C95.6196 44.5655 96.8196 43.1655 96.8196 42.2655C96.8196 40.9655 97.1196 40.9655 98.3196 41.9655C99.1196 42.6655 99.8196 44.0655 99.8196 45.1655ZM121.82 52.1655C121.82 54.4655 119.62 55.3655 116.02 54.4655L113.32 53.7655L116.12 52.3655C117.62 51.5655 118.82 50.1655 118.82 49.2655C118.82 47.9655 119.12 47.9655 120.32 48.9655C121.12 49.6655 121.82 51.0655 121.82 52.1655ZM107.62 57.4655C107.22 59.8655 103.42 60.6655 101.12 58.7655C99.7196 57.6655 99.8196 57.4655 101.92 56.9655C103.52 56.5655 104.42 55.5655 104.62 53.9655C105.02 51.5655 105.02 51.5655 106.42 53.4655C107.22 54.5655 107.72 56.3655 107.62 57.4655ZM136.62 64.4655C136.42 65.9655 135.52 66.4655 133.42 66.4655C130.02 66.4655 128.82 64.4655 131.82 63.6655C133.12 63.3655 133.82 62.2655 133.82 60.7655C133.92 58.4655 133.92 58.4655 135.42 60.4655C136.22 61.5655 136.72 63.3655 136.62 64.4655ZM122.42 64.3655C123.22 67.5655 122.22 68.9655 119.32 68.9655C116.12 68.9655 115.32 67.3655 117.82 65.9655C118.92 65.3655 119.82 64.2655 119.82 63.4655C119.82 61.0655 121.72 61.7655 122.42 64.3655ZM130.82 76.5655C130.82 79.3655 129.42 80.3655 126.22 79.5655C123.32 78.7655 123.12 77.3655 125.82 76.6655C127.02 76.3655 127.82 75.2655 127.82 73.9655C127.82 72.0655 128.02 71.9655 129.32 72.9655C130.12 73.6655 130.82 75.2655 130.82 76.5655Z" fill="black"/>
<path d="M59.0198 29.1655C59.6198 30.9655 61.8198 31.2655 61.8198 29.5655C61.8198 28.6655 61.1198 27.9655 60.2198 27.9655C59.3198 27.9655 58.8198 28.4655 59.0198 29.1655Z" fill="black"/>
</svg>
