<?xml version="1.0" standalone="no"?>
<!DOCTYPE svg PUBLIC "-//W3C//DTD SVG 20010904//EN"
 "http://www.w3.org/TR/2001/REC-SVG-20010904/DTD/svg10.dtd">
<svg version="1.0" xmlns="http://www.w3.org/2000/svg"
 width="182.000000pt" height="182.000000pt" viewBox="0 0 182.000000 182.000000"
 preserveAspectRatio="xMidYMid meet">

<g transform="translate(0.000000,182.000000) scale(0.100000,-0.100000)"
fill="#000000" stroke="none">
<path d="M843 1758 c-54 -18 -83 -57 -93 -129 -5 -35 -10 -83 -10 -106 0 -23
-5 -43 -12 -45 -8 -3 -11 -24 -9 -60 l2 -56 -33 -7 c-48 -11 -119 -49 -148
-80 -14 -14 -55 -42 -91 -61 -130 -68 -202 -171 -215 -306 -4 -44 -11 -68 -19
-68 -14 0 -48 -73 -67 -143 -9 -34 -9 -55 -1 -81 9 -28 8 -44 -5 -78 -18 -51
-18 -193 0 -216 67 -80 453 -244 609 -259 91 -8 112 -1 128 42 14 38 31 38 31
0 0 -33 26 -45 117 -51 70 -5 88 -3 173 26 202 68 374 147 455 208 45 34 51
42 56 87 4 28 2 73 -4 100 -5 28 -10 93 -11 145 -1 82 -5 104 -30 158 -16 34
-34 62 -41 62 -8 0 -14 25 -18 69 -11 133 -78 233 -199 296 -40 21 -91 55
-114 75 -35 32 -134 80 -164 80 -6 0 -10 27 -10 60 0 41 -4 60 -12 60 -9 0
-14 25 -15 87 -2 58 -9 98 -20 122 -33 67 -138 98 -230 69z m-83 -426 c0 -44
35 -120 73 -159 37 -39 46 -43 88 -43 42 0 50 4 87 44 28 31 45 62 57 105 23
79 39 69 33 -19 -4 -51 -15 -89 -43 -150 -84 -177 -170 -186 -256 -25 -69 130
-93 265 -47 265 4 0 8 -8 8 -18z m599 -496 c63 -42 118 -76 123 -76 4 0 8 -4
8 -10 0 -22 -74 -4 -113 29 -49 40 -44 -64 9 -174 21 -45 31 -57 56 -62 18 -3
34 -15 40 -29 9 -18 16 -22 35 -18 37 10 27 -3 -34 -42 -32 -20 -86 -61 -120
-90 -89 -75 -188 -144 -207 -144 -11 0 -16 9 -16 28 0 35 -9 48 -43 61 -42 16
-77 14 -77 -5 0 -11 -5 -14 -17 -9 -42 16 -70 16 -82 1 -11 -13 -15 -12 -35
10 -20 24 -25 25 -61 15 -27 -7 -42 -7 -51 0 -14 12 -71 3 -91 -13 -7 -6 -13
-26 -13 -44 0 -22 -5 -34 -13 -34 -18 0 -82 46 -181 132 -44 38 -100 81 -123
95 -48 28 -57 47 -18 37 20 -5 25 -2 25 12 0 12 15 27 38 39 27 15 44 35 65
78 33 68 46 150 26 162 -8 5 -14 4 -17 -3 -4 -14 -45 -36 -84 -46 -43 -10 -35
15 14 43 23 13 73 46 111 73 93 66 106 69 64 15 -63 -83 -61 -148 7 -224 l43
-47 78 13 c80 13 164 44 177 64 5 7 13 29 18 50 14 47 27 47 40 -1 5 -22 18
-46 27 -54 23 -20 89 -43 185 -64 65 -15 79 -15 93 -4 27 22 65 107 65 142 0
37 -39 126 -63 147 -17 13 -24 37 -9 28 4 -3 58 -39 121 -81z"/>
<path d="M510 549 c0 -16 13 -37 34 -58 33 -32 57 -76 73 -136 7 -27 8 -25 11
22 5 78 -8 115 -47 134 -18 9 -42 27 -52 40 l-19 24 0 -26z"/>
<path d="M1308 552 c-3 -10 -22 -26 -42 -36 -44 -21 -56 -48 -56 -122 0 -62
14 -65 24 -4 4 27 20 55 51 90 25 28 45 57 45 65 0 22 -17 27 -22 7z"/>
</g>
</svg>
